<mxfile host="app.diagrams.net" modified="2023-01-31T17:19:02.129Z" agent="5.0 (X11; Linux x86_64) AppleWebKit/537.36 (KHTML, like Gecko) Chrome/109.0.0.0 Safari/537.36 Edg/109.0.1518.70" etag="rhs83tN1R8CkoBcv9KPk" version="20.8.13" type="github">
  <diagram name="Page-1" id="5f0bae14-7c28-e335-631c-24af17079c00">
    <mxGraphModel dx="3180" dy="1113" grid="1" gridSize="10" guides="1" tooltips="1" connect="1" arrows="1" fold="1" page="1" pageScale="1" pageWidth="1100" pageHeight="850" background="none" math="0" shadow="0">
      <root>
        <mxCell id="0" />
        <mxCell id="1" parent="0" />
        <mxCell id="uQ2OAuAyLlIsEGCyf4NW-14" style="edgeStyle=orthogonalEdgeStyle;rounded=0;orthogonalLoop=1;jettySize=auto;html=1;exitX=0.5;exitY=1;exitDx=0;exitDy=0;entryX=0.5;entryY=0;entryDx=0;entryDy=0;fontFamily=Helvetica;" edge="1" parent="1" source="uQ2OAuAyLlIsEGCyf4NW-10" target="uQ2OAuAyLlIsEGCyf4NW-18">
          <mxGeometry relative="1" as="geometry">
            <mxPoint x="395" y="160" as="targetPoint" />
          </mxGeometry>
        </mxCell>
        <mxCell id="uQ2OAuAyLlIsEGCyf4NW-10" value="" style="shape=image;html=1;verticalAlign=top;verticalLabelPosition=bottom;labelBackgroundColor=#ffffff;imageAspect=0;aspect=fixed;image=https://cdn4.iconfinder.com/data/icons/online-marketing-hand-drawn-vol-2/52/development__code__script__web__tag__root__browser-128.png" vertex="1" parent="1">
          <mxGeometry x="380" y="40" width="70" height="70" as="geometry" />
        </mxCell>
        <mxCell id="uQ2OAuAyLlIsEGCyf4NW-11" value="Dashboard" style="text;html=1;align=center;verticalAlign=middle;resizable=0;points=[];autosize=1;strokeColor=none;fillColor=none;fontStyle=1;fontFamily=Helvetica;" vertex="1" parent="1">
          <mxGeometry x="370" y="10" width="90" height="30" as="geometry" />
        </mxCell>
        <mxCell id="uQ2OAuAyLlIsEGCyf4NW-18" value="" style="rounded=0;whiteSpace=wrap;html=1;shadow=1;glass=0;fontFamily=Helvetica;fillColor=#d5e8d4;strokeColor=#82b366;" vertex="1" parent="1">
          <mxGeometry x="250" y="150" width="330" height="250" as="geometry" />
        </mxCell>
        <mxCell id="uQ2OAuAyLlIsEGCyf4NW-61" value="" style="edgeStyle=orthogonalEdgeStyle;rounded=0;orthogonalLoop=1;jettySize=auto;html=1;fontFamily=Helvetica;fontSize=13;" edge="1" parent="1" source="uQ2OAuAyLlIsEGCyf4NW-21" target="uQ2OAuAyLlIsEGCyf4NW-60">
          <mxGeometry relative="1" as="geometry" />
        </mxCell>
        <mxCell id="uQ2OAuAyLlIsEGCyf4NW-21" value="header" style="html=1;rounded=1;shadow=0;glass=0;sketch=0;fontFamily=Helvetica;fillColor=#e1d5e7;strokeColor=#9673a6;" vertex="1" parent="1">
          <mxGeometry x="260" y="160" width="300" height="50" as="geometry" />
        </mxCell>
        <mxCell id="uQ2OAuAyLlIsEGCyf4NW-22" value="" style="line;strokeWidth=1;fillColor=none;align=left;verticalAlign=middle;spacingTop=-1;spacingLeft=3;spacingRight=3;rotatable=0;labelPosition=right;points=[];portConstraint=eastwest;strokeColor=inherit;rounded=0;shadow=1;glass=0;sketch=0;fontFamily=Helvetica;" vertex="1" parent="1">
          <mxGeometry x="250" y="220" width="330" height="8" as="geometry" />
        </mxCell>
        <mxCell id="uQ2OAuAyLlIsEGCyf4NW-24" value="" style="endArrow=none;html=1;rounded=0;fontFamily=Helvetica;entryX=0.25;entryY=1;entryDx=0;entryDy=0;exitX=0.252;exitY=0.875;exitDx=0;exitDy=0;exitPerimeter=0;" edge="1" parent="1" source="uQ2OAuAyLlIsEGCyf4NW-22" target="uQ2OAuAyLlIsEGCyf4NW-18">
          <mxGeometry width="50" height="50" relative="1" as="geometry">
            <mxPoint x="424" y="230" as="sourcePoint" />
            <mxPoint x="420" y="390" as="targetPoint" />
            <Array as="points" />
          </mxGeometry>
        </mxCell>
        <mxCell id="uQ2OAuAyLlIsEGCyf4NW-29" value="" style="edgeStyle=orthogonalEdgeStyle;rounded=0;orthogonalLoop=1;jettySize=auto;html=1;fontFamily=Helvetica;" edge="1" parent="1" source="uQ2OAuAyLlIsEGCyf4NW-25" target="uQ2OAuAyLlIsEGCyf4NW-28">
          <mxGeometry relative="1" as="geometry" />
        </mxCell>
        <mxCell id="uQ2OAuAyLlIsEGCyf4NW-25" value="Sidebar" style="html=1;rounded=1;shadow=0;glass=0;fontFamily=Helvetica;fillColor=#e1d5e7;strokeColor=#9673a6;" vertex="1" parent="1">
          <mxGeometry x="260" y="240" width="60" height="150" as="geometry" />
        </mxCell>
        <mxCell id="uQ2OAuAyLlIsEGCyf4NW-26" value="main" style="html=1;rounded=1;shadow=0;glass=0;sketch=0;fontFamily=Helvetica;fillColor=#e1d5e7;strokeColor=#9673a6;" vertex="1" parent="1">
          <mxGeometry x="350" y="240" width="210" height="150" as="geometry" />
        </mxCell>
        <mxCell id="uQ2OAuAyLlIsEGCyf4NW-28" value="&lt;div&gt;&lt;span style=&quot;font-size: 14px;&quot;&gt;&lt;br&gt;&lt;/span&gt;&lt;/div&gt;" style="html=1;rounded=1;shadow=0;glass=0;fontFamily=Helvetica;fillColor=#e1d5e7;strokeColor=#9673a6;align=left;" vertex="1" parent="1">
          <mxGeometry x="-140" y="140" width="310" height="780" as="geometry" />
        </mxCell>
        <mxCell id="uQ2OAuAyLlIsEGCyf4NW-30" value="&lt;b&gt;&lt;font style=&quot;font-size: 22px;&quot;&gt;Home&lt;/font&gt;&lt;/b&gt;" style="rounded=1;whiteSpace=wrap;html=1;shadow=0;glass=0;sketch=0;fontFamily=Helvetica;fontSize=10;fillColor=#f9f7ed;strokeColor=#36393d;" vertex="1" parent="1">
          <mxGeometry x="-95" y="194" width="220" height="60" as="geometry" />
        </mxCell>
        <mxCell id="uQ2OAuAyLlIsEGCyf4NW-77" value="" style="edgeStyle=orthogonalEdgeStyle;rounded=0;orthogonalLoop=1;jettySize=auto;html=1;fontFamily=Helvetica;fontSize=13;" edge="1" parent="1" source="uQ2OAuAyLlIsEGCyf4NW-31" target="uQ2OAuAyLlIsEGCyf4NW-76">
          <mxGeometry relative="1" as="geometry" />
        </mxCell>
        <mxCell id="uQ2OAuAyLlIsEGCyf4NW-31" value="&lt;b&gt;&lt;font style=&quot;font-size: 22px;&quot;&gt;Platforms&lt;/font&gt;&lt;/b&gt;" style="rounded=1;whiteSpace=wrap;html=1;shadow=0;glass=0;sketch=0;fontFamily=Helvetica;fontSize=10;fillColor=#f9f7ed;strokeColor=#36393d;" vertex="1" parent="1">
          <mxGeometry x="-95" y="270" width="220" height="60" as="geometry" />
        </mxCell>
        <mxCell id="uQ2OAuAyLlIsEGCyf4NW-59" value="&lt;b&gt;&lt;font style=&quot;font-size: 22px;&quot;&gt;Settings&lt;/font&gt;&lt;/b&gt;" style="rounded=1;whiteSpace=wrap;html=1;shadow=0;glass=0;sketch=0;fontFamily=Helvetica;fontSize=10;fillColor=#f9f7ed;strokeColor=#36393d;" vertex="1" parent="1">
          <mxGeometry x="-85" y="830" width="220" height="60" as="geometry" />
        </mxCell>
        <mxCell id="uQ2OAuAyLlIsEGCyf4NW-60" value="" style="html=1;rounded=1;shadow=0;glass=0;sketch=0;fontFamily=Helvetica;fillColor=#e1d5e7;strokeColor=#9673a6;" vertex="1" parent="1">
          <mxGeometry x="640" y="144" width="570" height="82" as="geometry" />
        </mxCell>
        <mxCell id="uQ2OAuAyLlIsEGCyf4NW-65" value="" style="html=1;verticalLabelPosition=bottom;align=center;labelBackgroundColor=#ffffff;verticalAlign=top;strokeWidth=2;strokeColor=#0080F0;shadow=0;dashed=0;shape=mxgraph.ios7.icons.user;rounded=1;glass=0;sketch=0;fontFamily=Helvetica;fontSize=13;" vertex="1" parent="1">
          <mxGeometry x="660" y="160" width="50" height="50" as="geometry" />
        </mxCell>
        <mxCell id="uQ2OAuAyLlIsEGCyf4NW-68" value="Search" style="strokeWidth=1;shadow=0;dashed=0;align=center;html=1;shape=mxgraph.mockup.forms.searchBox;mainText=;strokeColor2=#008cff;fontSize=17;align=left;spacingLeft=3;rounded=1;glass=0;fontFamily=Helvetica;" vertex="1" parent="1">
          <mxGeometry x="730" y="170" width="400" height="30" as="geometry" />
        </mxCell>
        <mxCell id="uQ2OAuAyLlIsEGCyf4NW-71" value="" style="shape=image;html=1;verticalAlign=top;verticalLabelPosition=bottom;labelBackgroundColor=#ffffff;imageAspect=0;aspect=fixed;image=https://cdn1.iconfinder.com/data/icons/unicons-line-vol-3/24/exit-128.png;rounded=1;shadow=0;glass=0;sketch=0;fontFamily=Helvetica;fontSize=13;fillColor=#0000CC;" vertex="1" parent="1">
          <mxGeometry x="1150" y="165" width="40" height="40" as="geometry" />
        </mxCell>
        <mxCell id="uQ2OAuAyLlIsEGCyf4NW-74" value="&lt;p style=&quot;margin:0px;margin-top:6px;text-align:center;&quot;&gt;&lt;b&gt;Home&amp;nbsp;&lt;/b&gt;&lt;b style=&quot;background-color: initial;&quot;&gt;Components&lt;/b&gt;&lt;/p&gt;&lt;p style=&quot;margin:0px;margin-left:8px;&quot;&gt;&lt;br&gt;&lt;/p&gt;&lt;p style=&quot;margin:0px;margin-left:8px;&quot;&gt;+ number of platforms&lt;/p&gt;&amp;nbsp; + number of users&lt;br&gt;&amp;nbsp; + must registered devices brands&lt;br&gt;&amp;nbsp; + must error on brands&lt;br&gt;&amp;nbsp; + number of errors&amp;nbsp;&lt;br&gt;&amp;nbsp;&lt;br&gt;&amp;nbsp;&lt;br&gt;&amp;nbsp;&lt;p style=&quot;margin:0px;margin-left:8px;&quot;&gt;&lt;span style=&quot;background-color: initial;&quot;&gt;&amp;nbsp;&lt;/span&gt;&lt;/p&gt;" style="align=left;overflow=fill;html=1;dropTarget=0;rounded=1;shadow=0;glass=0;sketch=0;fontFamily=Helvetica;fontSize=13;fillColor=#99FFCC;fillStyle=solid;gradientColor=#66FF66;gradientDirection=south;" vertex="1" parent="1">
          <mxGeometry x="360" y="445" width="230" height="130" as="geometry" />
        </mxCell>
        <mxCell id="uQ2OAuAyLlIsEGCyf4NW-75" value="" style="shape=component;jettyWidth=8;jettyHeight=4;rounded=1;shadow=0;glass=0;sketch=0;fontFamily=Helvetica;fontSize=13;fillColor=#d5e8d4;strokeColor=#82b366;" vertex="1" parent="uQ2OAuAyLlIsEGCyf4NW-74">
          <mxGeometry x="1" width="20" height="20" relative="1" as="geometry">
            <mxPoint x="-24" y="4" as="offset" />
          </mxGeometry>
        </mxCell>
        <mxCell id="uQ2OAuAyLlIsEGCyf4NW-81" value="" style="rounded=1;whiteSpace=wrap;html=1;shadow=0;glass=0;sketch=0;fillStyle=solid;fontFamily=Helvetica;fontSize=13;fillColor=#8CFFEC;gradientColor=#66FF66;gradientDirection=south;" vertex="1" parent="1">
          <mxGeometry x="-120" y="460" width="270" height="350" as="geometry" />
        </mxCell>
        <mxCell id="uQ2OAuAyLlIsEGCyf4NW-83" style="edgeStyle=orthogonalEdgeStyle;rounded=0;orthogonalLoop=1;jettySize=auto;html=1;exitX=0.5;exitY=1;exitDx=0;exitDy=0;entryX=0.5;entryY=0;entryDx=0;entryDy=0;fontFamily=Helvetica;fontSize=13;" edge="1" parent="1" source="uQ2OAuAyLlIsEGCyf4NW-76" target="uQ2OAuAyLlIsEGCyf4NW-81">
          <mxGeometry relative="1" as="geometry" />
        </mxCell>
        <mxCell id="uQ2OAuAyLlIsEGCyf4NW-76" value="if platform&amp;nbsp;&lt;br&gt;selected" style="rhombus;whiteSpace=wrap;html=1;rounded=1;shadow=0;glass=0;sketch=0;fillStyle=solid;fontFamily=Helvetica;fontSize=13;fillColor=#8CFFEC;gradientColor=#66FF66;gradientDirection=south;" vertex="1" parent="1">
          <mxGeometry x="-36.25" y="355" width="102.5" height="90" as="geometry" />
        </mxCell>
        <mxCell id="uQ2OAuAyLlIsEGCyf4NW-32" value="&lt;b&gt;&lt;font style=&quot;font-size: 16px;&quot;&gt;Users&lt;/font&gt;&lt;/b&gt;" style="rounded=1;whiteSpace=wrap;html=1;shadow=0;glass=0;sketch=0;fontFamily=Helvetica;fontSize=10;fillColor=#fff2cc;strokeColor=#d6b656;" vertex="1" parent="1">
          <mxGeometry x="-70" y="480" width="170" height="30" as="geometry" />
        </mxCell>
        <mxCell id="uQ2OAuAyLlIsEGCyf4NW-36" value="&lt;b&gt;&lt;font style=&quot;font-size: 16px;&quot;&gt;Owner&lt;/font&gt;&lt;/b&gt;" style="rounded=1;whiteSpace=wrap;html=1;shadow=0;glass=0;sketch=0;fontFamily=Helvetica;fontSize=10;fillColor=#fff2cc;strokeColor=#d6b656;" vertex="1" parent="1">
          <mxGeometry x="-70" y="530" width="170" height="30" as="geometry" />
        </mxCell>
        <mxCell id="uQ2OAuAyLlIsEGCyf4NW-42" value="&lt;b&gt;&lt;font style=&quot;font-size: 16px;&quot;&gt;Builds&lt;/font&gt;&lt;/b&gt;" style="rounded=1;whiteSpace=wrap;html=1;shadow=0;glass=0;sketch=0;fontFamily=Helvetica;fontSize=10;fillColor=#fff2cc;strokeColor=#d6b656;" vertex="1" parent="1">
          <mxGeometry x="-70" y="580" width="170" height="30" as="geometry" />
        </mxCell>
        <mxCell id="uQ2OAuAyLlIsEGCyf4NW-44" value="&lt;font style=&quot;font-size: 13px;&quot;&gt;release version&lt;/font&gt;" style="rounded=1;whiteSpace=wrap;html=1;shadow=0;glass=0;sketch=0;fontFamily=Helvetica;fontSize=10;fillColor=#f8cecc;strokeColor=#b85450;" vertex="1" parent="1">
          <mxGeometry x="-30" y="630" width="110" height="40" as="geometry" />
        </mxCell>
        <mxCell id="uQ2OAuAyLlIsEGCyf4NW-55" value="&lt;font style=&quot;font-size: 13px;&quot;&gt;pre release version&lt;/font&gt;" style="rounded=1;whiteSpace=wrap;html=1;shadow=0;glass=0;sketch=0;fontFamily=Helvetica;fontSize=10;fillColor=#f8cecc;strokeColor=#b85450;" vertex="1" parent="1">
          <mxGeometry x="-30" y="680" width="110" height="50" as="geometry" />
        </mxCell>
        <mxCell id="uQ2OAuAyLlIsEGCyf4NW-56" value="&lt;font style=&quot;font-size: 13px;&quot;&gt;developer release version&lt;/font&gt;" style="rounded=1;whiteSpace=wrap;html=1;shadow=0;glass=0;sketch=0;fontFamily=Helvetica;fontSize=10;fillColor=#f8cecc;strokeColor=#b85450;" vertex="1" parent="1">
          <mxGeometry x="-30" y="740" width="110" height="50" as="geometry" />
        </mxCell>
      </root>
    </mxGraphModel>
  </diagram>
</mxfile>
